<svg xmlns="http://www.w3.org/2000/svg" viewBox="0 0 32 32" fill="none" role="img" aria-label="Transapp">
  <rect width="32" height="32" rx="8" fill="#2563eb"/>
  <path
    d="M8.5 11.5c0-1.1.9-2 2-2h4.8c1.1 0 2 .9 2 2v1.2c0 1.1-.9 2-2 2h-2.1l-1.2 1.8h5.3"
    stroke="#fff"
    stroke-width="1.75"
    stroke-linecap="round"
    stroke-linejoin="round"
  />
  <path
    d="M23.5 20.5c0 1.1-.9 2-2 2h-4.8c-1.1 0-2-.9-2-2v-1.2c0-1.1.9-2 2-2h2.1l1.2-1.8h-5.3"
    stroke="#fff"
    stroke-width="1.75"
    stroke-linecap="round"
    stroke-linejoin="round"
  />
  <path
    d="M13.2 16h5.6M16 13.2v5.6"
    stroke="#fff"
    stroke-width="1.5"
    stroke-linecap="round"
  />
</svg>
